<svg xmlns="http://www.w3.org/2000/svg" version="1.1" xmlns:xlink="http://www.w3.org/1999/xlink" xmlns:svgjs="http://svgjs.dev/svgjs" width="1000" height="750" viewBox="0 0 1000 750"><rect width="1000" height="750" fill="#000000"></rect><g transform="matrix(0.834,0,0,0.834,82.4945475059697,233.79123044827455)"><svg viewBox="0 0 396 134" data-background-color="#333366" preserveAspectRatio="xMidYMid meet" height="338" width="1000" xmlns="http://www.w3.org/2000/svg" xmlns:xlink="http://www.w3.org/1999/xlink"><g id="tight-bounds" transform="matrix(1,0,0,1,0.2399990259424385,0.12490996527466791)"><svg viewBox="0 0 395.52 133.75018006945066" height="133.75018006945066" width="395.52"><g><svg viewBox="0 0 668.7853713892096 226.15838352326358" height="133.75018006945066" width="395.52"><g transform="matrix(1,0,0,1,273.2653713892095,63.19378635622638)"><svg viewBox="0 0 395.52 99.77081081081081" height="99.77081081081081" width="395.52"><g id="textblocktransform"><svg viewBox="0 0 395.52 99.77081081081081" height="99.77081081081081" width="395.52" id="textblock"><g><svg viewBox="0 0 395.52 99.77081081081081" height="99.77081081081081" width="395.52"><g transform="matrix(1,0,0,1,0,0)"><svg width="395.52" viewBox="2.4800000190734863 -35.70000076293945 144.27999877929688 36.400001525878906" height="99.77081081081081" data-palette-color="#ffffff"><path d="M14 0.7L14 0.7Q11.85 0.7 9.64 0.34 7.43-0.03 5.55-0.58 3.68-1.13 2.48-1.68L2.48-1.68 3.18-7.48Q4.7-6.73 6.61-6.03 8.53-5.33 10.65-4.85 12.78-4.38 14.95-4.38L14.95-4.38Q17.98-4.38 19.78-5.51 21.58-6.65 21.58-9.05L21.58-9.05Q21.58-10.85 20.63-11.99 19.68-13.13 17.76-13.96 15.85-14.8 12.9-15.73L12.9-15.73Q10.08-16.63 7.74-17.82 5.4-19.03 4-20.96 2.6-22.9 2.6-26.03L2.6-26.03Q2.6-28.85 4.04-31.04 5.48-33.23 8.28-34.46 11.08-35.7 15.2-35.7L15.2-35.7Q18.55-35.7 21.44-34.96 24.33-34.23 26.28-33.38L26.28-33.38 25.73-27.68Q22.83-29.23 20.24-29.93 17.65-30.63 14.93-30.63L14.93-30.63Q11.98-30.63 10.16-29.58 8.35-28.53 8.35-26.25L8.35-26.25Q8.35-24.6 9.22-23.59 10.1-22.58 11.8-21.85 13.5-21.13 15.95-20.35L15.95-20.35Q19.68-19.23 22.28-17.8 24.88-16.38 26.24-14.33 27.6-12.28 27.6-9.25L27.6-9.25Q27.6-7.3 26.91-5.53 26.23-3.75 24.65-2.34 23.08-0.93 20.46-0.11 17.85 0.7 14 0.7ZM53.85 0L33.05 0 33.05-35 38.5-35 38.5-4.9 53.85-4.9 53.85 0ZM72.32 0.7L72.32 0.7Q67.32 0.7 63.42-1.55 59.52-3.8 57.3-7.89 55.07-11.98 55.07-17.5L55.07-17.5Q55.07-23.03 57.3-27.11 59.52-31.2 63.42-33.45 67.32-35.7 72.32-35.7L72.32-35.7Q77.32-35.7 81.22-33.45 85.12-31.2 87.34-27.11 89.57-23.03 89.57-17.5L89.57-17.5Q89.57-11.98 87.34-7.89 85.12-3.8 81.22-1.55 77.32 0.7 72.32 0.7ZM72.32-4.58L72.32-4.58Q76.12-4.58 78.67-6.28 81.22-7.98 82.51-10.91 83.8-13.85 83.8-17.5L83.8-17.5Q83.8-21.15 82.51-24.09 81.22-27.03 78.67-28.73 76.12-30.43 72.32-30.43L72.32-30.43Q68.52-30.43 65.97-28.73 63.42-27.03 62.13-24.09 60.84-21.15 60.84-17.5L60.84-17.5Q60.84-13.85 62.13-10.91 63.42-7.98 65.97-6.28 68.52-4.58 72.32-4.58ZM100.99 0L95.39 0 95.39-35 107.34-35Q111.07-35 113.79-33.84 116.52-32.68 117.98-30.18 119.44-27.68 119.44-23.68L119.44-23.68Q119.44-19.68 117.98-17.14 116.52-14.6 113.81-13.4 111.09-12.2 107.39-12.2L107.39-12.2 100.99-12.2 100.99 0ZM100.99-30.28L100.99-16.93 106.67-16.93Q110.27-16.93 112.07-18.55 113.87-20.18 113.87-23.6L113.87-23.6Q113.87-27.05 112.12-28.66 110.37-30.28 106.62-30.28L106.62-30.28 100.99-30.28ZM146.76 0L124.49 0 124.49-35 146.29-35 146.29-29.9 130.01-29.9 130.01-20.83 142.84-20.83 142.84-15.73 130.01-15.73 130.01-5.1 146.76-5.1 146.76 0Z" opacity="1" transform="matrix(1,0,0,1,0,0)" fill="#ffffff" class="wordmark-text-0" data-fill-palette-color="primary" id="text-0"></path></svg></g></svg></g></svg></g></svg></g><g><svg viewBox="0 0 226.15838352326358 226.15838352326358" height="226.15838352326358" width="226.15838352326358"><g><svg></svg></g><g id="icon-0"><svg viewBox="0 0 226.15838352326358 226.15838352326358" height="226.15838352326358" width="226.15838352326358"><g><path d="M0 113.079c0-62.452 50.627-113.079 113.079-113.079 62.452 0 113.079 50.627 113.079 113.079 0 62.452-50.627 113.079-113.079 113.079-62.452 0-113.079-50.627-113.079-113.079zM113.079 217.161c57.483 0 104.082-46.599 104.082-104.082 0-57.483-46.599-104.082-104.082-104.082-57.483 0-104.082 46.599-104.082 104.082 0 57.483 46.599 104.082 104.082 104.082z" data-fill-palette-color="accent" fill="#ffffff" stroke="transparent"></path></g><g transform="matrix(1,0,0,1,48.7170894838375,72.01875829933527)"><svg viewBox="0 0 128.72420455558859 82.12086692459305" height="82.12086692459305" width="128.72420455558859"><g><svg xmlns="http://www.w3.org/2000/svg" xmlns:xlink="http://www.w3.org/1999/xlink" version="1.1" x="0" y="0" viewBox="8 24 83.83600616455078 53.48400115966797" enable-background="new 0 0 100 100" xml:space="preserve" height="82.12086692459305" width="128.72420455558859" class="icon-s-0" data-fill-palette-color="accent" id="s-0"><path d="M83.924 24c-4.363 0-7.913 3.55-7.913 7.913 0 1.461 0.405 2.825 1.098 4.001L64.486 48.536c-1.13-0.622-2.426-0.978-3.804-0.978-3.191 0-5.942 1.903-7.192 4.631L41.195 49.8c-0.803-3.519-3.951-6.154-7.709-6.154-4.363 0-7.913 3.55-7.913 7.913 0 1.309 0.325 2.543 0.89 3.631l-7.214 7.216c-1.016-0.475-2.143-0.747-3.335-0.747C11.55 61.658 8 65.208 8 69.571s3.55 7.913 7.913 7.913c4.364 0 7.914-3.55 7.914-7.913 0-1.207-0.279-2.347-0.765-3.371l7.35-7.351c0.945 0.4 1.984 0.622 3.074 0.622 3.07 0 5.73-1.76 7.042-4.32l12.538 2.437c0.929 3.337 3.988 5.797 7.617 5.797 4.363 0 7.913-3.55 7.913-7.913 0-1.019-0.2-1.989-0.553-2.885l13.229-13.228c0.83 0.296 1.721 0.467 2.651 0.467 4.363 0 7.913-3.55 7.913-7.913S88.287 24 83.924 24zM15.913 72.104c-1.397 0-2.533-1.137-2.533-2.533 0-1.397 1.136-2.533 2.533-2.533 1.397 0 2.534 1.136 2.534 2.533C18.447 70.968 17.311 72.104 15.913 72.104zM33.486 54.092c-1.397 0-2.534-1.137-2.534-2.533 0-1.397 1.137-2.533 2.534-2.533s2.534 1.136 2.534 2.533C36.02 52.955 34.883 54.092 33.486 54.092zM60.683 58.005c-1.397 0-2.533-1.137-2.533-2.533 0-1.397 1.136-2.533 2.533-2.533 1.396 0 2.533 1.136 2.533 2.533C63.216 56.868 62.079 58.005 60.683 58.005zM83.924 34.446c-1.397 0-2.533-1.136-2.533-2.533s1.136-2.533 2.533-2.533c1.396 0 2.533 1.136 2.533 2.533S85.32 34.446 83.924 34.446z" fill="#ffffff" data-fill-palette-color="accent"></path></svg></g></svg></g></svg></g></svg></g></svg></g><defs></defs></svg><rect width="395.52" height="133.75018006945066" fill="none" stroke="none" visibility="hidden"></rect></g></svg></g></svg>